PathFileType	4	(X/Y/Z)	C:\Users\°ÂÌØÂü\Desktop\20201223\Trimmed_bx_n_0_901.trc
DataRate	CameraRate	NumFrames	NumMarkers	Units	OrigDataRate	OrigDataStartFrame	OrigNumFrames
50.00	50.00	       4	43	mm	50.00	490	       978
Frame#	Time	Top.Head			R.Acromium			L.Acromium			Sternum			R.ASIS			L.ASIS			V.Sacral			R.Thigh.Upper			R.Thigh.Front			R.Thigh.Rear			R.Knee.Lat			R.Knee.Med			R.Shank.Upper			R.Shank.Front			R.Shank.Rear			R.Ankle.Lat			R.Midfoot.Lat			R.Toe.Lat			R.Toe.Tip			R.Toe.Med			R.Ankle.Med			R.Midfoot.Sup			R.Heel			L.Thigh.Upper			L.Thigh.Front			L.Thigh.Rear			L.Knee.Lat			L.Knee.Med			L.Shank.Upper			L.Shank.Front			L.Shank.Rear			L.Ankle.Lat			L.Midfoot.Lat			L.Toe.Lat			L.Toe.Tip			L.Toe.Med			L.Ankle.Med			L.Midfoot.Sup			L.Heel			origin1 front left			origin2 front right			origin 3 back right			origin 4 back leftt			
		X1	Y1	Z1	X2	Y2	Z2	X3	Y3	Z3	X4	Y4	Z4	X5	Y5	Z5	X6	Y6	Z6	X7	Y7	Z7	X8	Y8	Z8	X9	Y9	Z9	X10	Y10	Z10	X11	Y11	Z11	X12	Y12	Z12	X13	Y13	Z13	X14	Y14	Z14	X15	Y15	Z15	X16	Y16	Z16	X17	Y17	Z17	X18	Y18	Z18	X19	Y19	Z19	X20	Y20	Z20	X21	Y21	Z21	X22	Y22	Z22	X23	Y23	Z23	X24	Y24	Z24	X25	Y25	Z25	X26	Y26	Z26	X27	Y27	Z27	X28	Y28	Z28	X29	Y29	Z29	X30	Y30	Z30	X31	Y31	Z31	X32	Y32	Z32	X33	Y33	Z33	X34	Y34	Z34	X35	Y35	Z35	X36	Y36	Z36	X37	Y37	Z37	X38	Y38	Z38	X39	Y39	Z39	X40	Y40	Z40	X41	Y41	Z41	X42	Y42	Z42	X43	Y43	Z43	

490	9.780	-40.43390	247.55106	1215.23340	-298.17078	55.82289	1087.15417	-303.12134	407.69525	1098.24561	-434.17853	242.17227	980.40503	-721.53894	112.88200	948.39746	-700.28326	334.15366	926.11530	-849.90979	249.73047	1096.19470	-800.84473	74.41705	819.34033	-703.06458	127.14927	793.93463	-789.27344	87.99599	703.78601	-771.50891	112.64868	589.12927	-739.89813	219.63808	550.33875	-782.61548	112.41888	522.85120	-703.62878	163.47226	526.03522	-777.76398	103.25744	471.43677	-699.56262	133.27448	209.74678	-617.13403	76.60597	164.91080	-569.83081	55.64845	163.48540	-495.29593	100.38358	160.73877	-537.65515	149.85570	162.71941	-653.74841	210.13124	225.94826	-601.15918	186.01262	174.60881	-728.98596	200.75468	168.51901	-769.48480	443.43356	846.49341	-686.59363	376.49796	808.65344	-764.95483	440.22403	728.86389	-751.93469	417.44965	592.88348	-743.32513	307.69275	557.10706	-757.45789	422.60767	546.73688	-699.90210	361.97186	532.26062	-792.96497	432.03802	473.21451	-683.05719	425.37625	214.15509	-578.37885	464.18948	164.81148	-539.97882	474.52365	159.61147	-485.73297	416.03467	166.84581	-526.84021	380.62177	175.59140	-655.57629	331.62665	210.51814	-598.76489	347.86160	171.39583	-736.23785	356.98456	161.66808	-444.04810	448.45844	146.38445	-450.65817	74.80137	143.16016	-806.82391	82.70580	141.24791	-799.47839	457.13782	145.26497	
491	9.800	-40.03036	247.54166	1211.65796	-298.04175	55.85356	1084.48047	-303.00433	407.73599	1095.96582	-434.03375	242.17851	977.11017	-722.41077	112.61214	947.37042	-701.51880	334.10645	925.02344	-849.92273	249.58832	1096.19116	-800.97668	74.35896	819.22998	-703.24609	127.05101	793.91003	-789.53021	87.78494	703.76611	-771.59723	112.51744	589.11316	-739.94299	219.56429	550.28265	-782.74579	112.40836	522.69818	-703.67133	163.41646	525.96625	-777.85754	103.29666	471.29019	-699.55109	133.26184	209.72757	-617.14368	76.61555	164.88289	-569.95428	55.65340	163.39439	-495.28418	100.38139	160.72411	-537.66785	149.84933	162.72855	-653.74774	210.13150	225.94849	-601.19287	186.06252	174.60995	-729.06842	200.78763	168.50114	-769.73926	443.35233	846.41498	-686.87964	376.34360	808.55017	-765.13049	440.10345	728.82104	-752.11975	417.41858	592.81183	-743.43604	307.68149	557.12689	-757.59631	422.52234	546.70691	-700.02313	361.99139	532.23462	-793.14178	431.92288	473.14130	-683.15662	425.41956	214.14751	-578.35730	464.19501	164.80130	-539.99982	474.52216	159.61530	-485.73764	416.03195	166.86853	-526.86761	380.65344	175.57225	-655.63428	331.62256	210.56818	-598.77454	347.87772	171.38509	-736.23950	356.96951	161.65930	-444.06305	448.44714	146.37807	-450.68564	74.79277	143.18645	-806.83234	82.70263	141.25601	-799.45502	457.15573	145.26114	
492	9.820	-39.72156	247.51736	1208.54358	-297.92352	55.86731	1082.09436	-302.92285	407.77985	1093.92078	-433.90045	242.17412	973.91302	-723.26636	112.34694	946.37335	-702.72070	334.06848	923.97003	-849.95508	249.49036	1096.20837	-801.11420	74.33262	819.13263	-703.47540	126.97940	793.90747	-789.78168	87.57479	703.76147	-771.68127	112.42186	589.12689	-740.02710	219.47179	550.21973	-782.90460	112.36436	522.59949	-703.74084	163.35320	525.88965	-777.99164	103.35876	471.14728	-699.54291	133.24760	209.71468	-617.15485	76.62194	164.85216	-570.08264	55.65830	163.30515	-495.30084	100.37654	160.68935	-537.67249	149.83125	162.74831	-653.74536	210.13057	225.94717	-601.22168	186.06519	174.61421	-729.21899	200.78053	168.46617	-769.98480	443.32675	846.35040	-687.17932	376.25433	808.43646	-765.29602	440.03189	728.76190	-752.28650	417.39545	592.74933	-743.55328	307.69550	557.11340	-757.73682	422.43546	546.67590	-700.12646	362.00467	532.23718	-793.29944	431.83841	473.06897	-683.24927	425.46799	214.12663	-578.34827	464.21442	164.80528	-540.01392	474.53250	159.62476	-485.74207	416.02448	166.88179	-526.88599	380.69366	175.55382	-655.69305	331.63138	210.62140	-598.78241	347.86258	171.39343	-736.24231	356.96698	161.64667	-444.06967	448.42899	146.36388	-450.69751	74.78168	143.20294	-806.83606	82.70950	141.26888	-799.43353	457.18539	145.26645	
493	9.840	-39.48483	247.44681	1205.84583	-297.83533	55.87377	1079.99243	-302.88849	407.81229	1092.10352	-433.77850	242.15938	970.81354	-724.10553	112.08650	945.40637	-703.88904	334.03961	922.95496	-850.00092	249.43123	1096.24023	-801.27539	74.32960	819.06458	-703.72516	126.93336	793.91815	-790.00000	87.39581	703.76324	-771.76270	112.36169	589.14752	-740.14093	219.38322	550.16718	-783.07404	112.28574	522.58038	-703.84729	163.28651	525.82220	-778.17041	103.44017	471.01550	-699.53748	133.23131	209.71144	-617.16504	76.62366	164.82759	-570.16431	55.65701	163.25731	-495.34262	100.36426	160.64835	-537.67255	149.80746	162.77553	-653.74060	210.13083	225.94193	-601.23022	186.03098	174.62317	-729.39331	200.74553	168.42426	-770.19958	443.34567	846.31006	-687.45648	376.22372	808.33502	-765.46698	439.99115	728.70575	-752.42505	417.38538	592.70435	-743.65027	307.71951	557.08307	-757.86230	422.35956	546.64624	-700.22266	362.01114	532.23944	-793.41565	431.79089	472.99954	-683.31531	425.50967	214.09753	-578.35431	464.23737	164.82146	-540.01501	474.54868	159.64233	-485.74615	416.01483	166.88295	-526.89276	380.73083	175.54776	-655.73492	331.63821	210.67509	-598.79346	347.81805	171.41771	-736.24280	356.98373	161.62831	-444.07132	448.41409	146.34682	-450.68942	74.76751	143.20082	-806.83429	82.72095	141.28622	-799.41718	457.21371	145.27658	
